<svg width="30" height="30" viewBox="0 0 30 30" fill="none" xmlns="http://www.w3.org/2000/svg">
<g id="heart-regular (1) 1">
<path id="Vector" d="M14.2969 4.92199L14.9473 5.62511L15.6504 4.92316C17.6133 3.01007 20.332 2.13937 23.0039 2.5841C27.041 3.25675 30 6.75011 30 10.8458V11.1857C30 13.6173 28.9922 15.9435 27.2109 17.6017L16.623 27.4864C16.1836 27.8966 15.6035 28.1251 15 28.1251C14.3965 28.1251 13.8164 27.8966 13.377 27.4864L2.78848 17.6017C1.00957 15.9435 0 13.6173 0 11.1857V10.8458C0 6.75011 2.96016 3.25675 6.99609 2.5841C9.61523 2.13937 12.3867 3.01007 14.2969 4.92199C14.2969 4.92257 14.2441 4.92199 14.2969 4.92199ZM14.9473 9.60363L12.3105 6.86144C11.0391 5.64152 9.23438 5.06261 7.45898 5.35793C4.77832 5.805 2.8125 8.12707 2.8125 10.8458V11.1857C2.8125 12.838 3.49863 14.42 4.70742 15.545L15 25.1544L25.2949 15.545C26.502 14.42 27.1875 12.838 27.1875 11.1857V10.8458C27.1875 8.12707 25.2188 5.805 22.541 5.35793C20.7656 5.06261 18.9609 5.64152 17.6895 6.86144L14.9473 9.60363Z" fill="#545454"/>
</g>
</svg>
